<?xml version="1.0" encoding="utf-8"?>
<svg width="148" height="148" viewBox="0 0 148 148" fill="none" xmlns="http://www.w3.org/2000/svg">
  <g>
    <g transform="translate(26 25)">
      <path d="M48.4515 97.9398C46.1223 98.005 43.8585 97.8094 41.53 97.4827C35.2552 96.5677 29.3687 94.5429 23.935 91.212C11.9032 83.8968 4.20543 73.2498 1.03577 59.272C0.324218 56.1367 0.00074587 52.9362 0.00074587 49.7349C-0.0639321 36.9331 4.07608 25.6984 12.4854 16.162C19.795 7.93201 28.8511 2.90261 39.5242 0.812418C42.5002 0.224544 45.4755 -0.102029 48.4515 0.0285858C48.4515 4.92745 48.4515 9.7609 48.4515 14.6598C48.3221 14.725 48.1928 14.7904 48.0634 14.921C46.3163 16.162 44.57 17.4684 42.8883 18.8401C39.0715 21.9753 35.4493 25.3065 32.409 29.2909C28.3336 34.5816 25.6168 40.3949 25.2287 47.253C25.0346 50.5188 25.4228 53.72 26.4578 56.7894C28.9805 64.4314 36.8077 72.3349 47.8047 72.5312C48.4515 72.5312 48.5808 72.6616 48.5808 73.3802C48.5162 76.7111 48.5162 83.3737 48.5162 83.3737C48.5162 83.3737 48.5162 83.7656 48.5162 83.962C48.4515 88.599 48.4515 93.2368 48.4515 97.9398Z" fill="#2B8EFF" fill-rule="evenodd" transform="translate(0 0.048)" />
      <path d="M0.00152969 14.6411C0.00152969 14.6411 0.00152969 4.9088 0.00152969 0.0100108C2.65413 -0.0553336 5.24131 0.205969 7.82849 0.597884C12.6802 1.38164 17.3379 2.81869 21.7368 5.10476C30.8574 9.87294 38.0375 16.666 42.8892 25.9411C45.6705 31.2971 47.4822 36.9798 48.1937 42.9238C49.0345 49.9123 48.3877 56.8364 46.3172 63.5641C43.9241 71.2061 39.9132 77.9339 34.2861 83.6163C27.4293 90.4752 19.2783 94.9166 9.8343 96.9414C6.59958 97.5941 3.30093 97.9868 0.00152969 97.9208C0.00152969 93.2178 0.00152969 88.5808 0.00152969 83.8778C0.00152969 83.6815 0.00152969 83.3555 0.00152969 83.3555C0.00152969 83.3555 0.195564 83.2244 0.26025 83.1592C5.30599 79.5667 10.093 75.6476 14.2325 70.9446C16.9498 67.8752 19.2783 64.6088 20.896 60.8207C23.1598 55.4643 24.0653 49.9782 22.901 44.1647C20.8306 33.5832 11.4513 25.6798 0.648323 25.4186C-0.0631523 25.4186 0.00152969 24.8307 0.00152969 24.8307C0.00152969 24.8307 0.00152969 14.6411 0.00152969 14.6411Z" fill="#0561E2" fill-rule="evenodd" transform="translate(48.448 0)" />
    </g>
  </g>
</svg>